<svg width="118" height="31" viewBox="0 0 118 31" fill="none" xmlns="http://www.w3.org/2000/svg">
<path d="M14.97 19.28H7.11L5.85 23H0.48L8.1 1.94H14.04L21.66 23H16.23L14.97 19.28ZM13.65 15.32L11.04 7.61L8.46 15.32H13.65ZM29.1091 8.63C29.6091 7.85 30.2991 7.22 31.1791 6.74C32.0591 6.26 33.0891 6.02 34.2691 6.02C35.6491 6.02 36.8991 6.37 38.0191 7.07C39.1391 7.77 40.0191 8.77 40.6591 10.07C41.3191 11.37 41.6491 12.88 41.6491 14.6C41.6491 16.32 41.3191 17.84 40.6591 19.16C40.0191 20.46 39.1391 21.47 38.0191 22.19C36.8991 22.89 35.6491 23.24 34.2691 23.24C33.1091 23.24 32.0791 23 31.1791 22.52C30.2991 22.04 29.6091 21.42 29.1091 20.66V30.98H23.9791V6.26H29.1091V8.63ZM36.4291 14.6C36.4291 13.32 36.0691 12.32 35.3491 11.6C34.6491 10.86 33.7791 10.49 32.7391 10.49C31.7191 10.49 30.8491 10.86 30.1291 11.6C29.4291 12.34 29.0791 13.35 29.0791 14.63C29.0791 15.91 29.4291 16.92 30.1291 17.66C30.8491 18.4 31.7191 18.77 32.7391 18.77C33.7591 18.77 34.6291 18.4 35.3491 17.66C36.0691 16.9 36.4291 15.88 36.4291 14.6ZM49.4705 8.63C49.9705 7.85 50.6605 7.22 51.5405 6.74C52.4205 6.26 53.4505 6.02 54.6305 6.02C56.0105 6.02 57.2605 6.37 58.3805 7.07C59.5005 7.77 60.3805 8.77 61.0205 10.07C61.6805 11.37 62.0105 12.88 62.0105 14.6C62.0105 16.32 61.6805 17.84 61.0205 19.16C60.3805 20.46 59.5005 21.47 58.3805 22.19C57.2605 22.89 56.0105 23.24 54.6305 23.24C53.4705 23.24 52.4405 23 51.5405 22.52C50.6605 22.04 49.9705 21.42 49.4705 20.66V30.98H44.3405V6.26H49.4705V8.63ZM56.7905 14.6C56.7905 13.32 56.4305 12.32 55.7105 11.6C55.0105 10.86 54.1405 10.49 53.1005 10.49C52.0805 10.49 51.2105 10.86 50.4905 11.6C49.7905 12.34 49.4405 13.35 49.4405 14.63C49.4405 15.91 49.7905 16.92 50.4905 17.66C51.2105 18.4 52.0805 18.77 53.1005 18.77C54.1205 18.77 54.9905 18.4 55.7105 17.66C56.4305 16.9 56.7905 15.88 56.7905 14.6Z" fill="#FCAE61"/>
<path d="M69.8318 19.04H76.5518V23H64.7018V1.94H69.8318V19.04ZM77.9787 14.6C77.9787 12.88 78.2987 11.37 78.9387 10.07C79.5987 8.77 80.4887 7.77 81.6087 7.07C82.7287 6.37 83.9787 6.02 85.3587 6.02C86.5387 6.02 87.5687 6.26 88.4487 6.74C89.3487 7.22 90.0387 7.85 90.5187 8.63V6.26H95.6487V23H90.5187V20.63C90.0187 21.41 89.3187 22.04 88.4187 22.52C87.5387 23 86.5087 23.24 85.3287 23.24C83.9687 23.24 82.7287 22.89 81.6087 22.19C80.4887 21.47 79.5987 20.46 78.9387 19.16C78.2987 17.84 77.9787 16.32 77.9787 14.6ZM90.5187 14.63C90.5187 13.35 90.1587 12.34 89.4387 11.6C88.7387 10.86 87.8787 10.49 86.8587 10.49C85.8387 10.49 84.9687 10.86 84.2487 11.6C83.5487 12.32 83.1987 13.32 83.1987 14.6C83.1987 15.88 83.5487 16.9 84.2487 17.66C84.9687 18.4 85.8387 18.77 86.8587 18.77C87.8787 18.77 88.7387 18.4 89.4387 17.66C90.1587 16.92 90.5187 15.91 90.5187 14.63ZM104.49 8.63C104.97 7.85 105.66 7.22 106.56 6.74C107.46 6.26 108.49 6.02 109.65 6.02C111.03 6.02 112.28 6.37 113.4 7.07C114.52 7.77 115.4 8.77 116.04 10.07C116.7 11.37 117.03 12.88 117.03 14.6C117.03 16.32 116.7 17.84 116.04 19.16C115.4 20.46 114.52 21.47 113.4 22.19C112.28 22.89 111.03 23.24 109.65 23.24C108.47 23.24 107.44 23.01 106.56 22.55C105.68 22.07 104.99 21.44 104.49 20.66V23H99.36V0.8H104.49V8.63ZM111.81 14.6C111.81 13.32 111.45 12.32 110.73 11.6C110.03 10.86 109.16 10.49 108.12 10.49C107.1 10.49 106.23 10.86 105.51 11.6C104.81 12.34 104.46 13.35 104.46 14.63C104.46 15.91 104.81 16.92 105.51 17.66C106.23 18.4 107.1 18.77 108.12 18.77C109.14 18.77 110.01 18.4 110.73 17.66C111.45 16.9 111.81 15.88 111.81 14.6Z" fill="#242F51"/>
</svg>
